<svg viewBox="0 0 800 560" xmlns="http://www.w3.org/2000/svg">
  <rect width="800" height="560" rx="16" fill="#F5F6F8"/>
  <rect x="1" y="1" width="798" height="558" rx="15" fill="none" stroke="#E2E4E9" stroke-width="1"/>

  <!-- Browser chrome bar -->
  <rect x="0" y="0" width="800" height="36" rx="16" fill="#FFFFFF"/>
  <rect x="0" y="20" width="800" height="16" fill="#FFFFFF"/>
  <circle cx="20" cy="18" r="5" fill="#E2E4E9"/>
  <circle cx="38" cy="18" r="5" fill="#E2E4E9"/>
  <circle cx="56" cy="18" r="5" fill="#E2E4E9"/>
  <rect x="280" y="9" width="240" height="18" rx="9" fill="#F1F2F5"/>
  <text x="400" y="21.5" text-anchor="middle" font-family="Arial, sans-serif" font-size="10" fill="#7A7D85">sscfieldapp.com/templates</text>
  <line x1="0" y1="36" x2="800" y2="36" stroke="#E2E4E9" stroke-width="1"/>

  <!-- App header -->
  <rect x="0" y="36" width="800" height="56" fill="#FFFFFF"/>
  <line x1="0" y1="92" x2="800" y2="92" stroke="#E2E4E9" stroke-width="1"/>
  <rect x="32" y="52" width="24" height="24" rx="6" fill="#16294D"/>
  <path d="M40 68 L44 58 L48 68 M42 64 L46 64" stroke="#FFFFFF" stroke-width="1.6" fill="none" stroke-linecap="round" stroke-linejoin="round"/>
  <text x="66" y="68" font-family="Arial, sans-serif" font-size="15" font-weight="bold" fill="#16294D">SolumWHS</text>

  <text x="220" y="68" font-family="Arial, sans-serif" font-size="12" font-weight="600" fill="#3C4759">Dashboard</text>
  <rect x="290" y="52" width="70" height="24" rx="6" fill="#EAF4F5"/>
  <text x="325" y="68" text-anchor="middle" font-family="Arial, sans-serif" font-size="12" font-weight="600" fill="#18707F">Templates</text>

  <circle cx="700" cy="64" r="14" fill="#F1F2F5"/>
  <text x="700" y="68" text-anchor="middle" font-family="Arial, sans-serif" font-size="10" font-weight="bold" fill="#3C4759">AJ</text>
  <text x="748" y="60" text-anchor="middle" font-family="Arial, sans-serif" font-size="9" fill="#7A7D85">Acme Civil</text>
  <text x="748" y="72" text-anchor="middle" font-family="Arial, sans-serif" font-size="8" fill="#B4B8C0">Admin</text>

  <!-- Page heading -->
  <text x="32" y="126" font-family="Arial, sans-serif" font-size="20" font-weight="bold" fill="#16294D">Template library</text>
  <text x="32" y="148" font-family="Arial, sans-serif" font-size="12" fill="#7A7D85">Pick a safety template to fill in on-site. Progress saves to your organisation.</text>

  <!-- Template card 1 -->
  <g>
    <rect x="32" y="172" width="228" height="140" rx="12" fill="#FFFFFF" stroke="#E2E4E9" stroke-width="1"/>
    <rect x="52" y="192" width="40" height="40" rx="8" fill="#EAF4F5"/>
    <rect x="64" y="204" width="16" height="14" rx="2" fill="none" stroke="#18707F" stroke-width="1.6"/>
    <line x1="68" y1="209" x2="76" y2="209" stroke="#18707F" stroke-width="1.4"/>
    <line x1="68" y1="213" x2="76" y2="213" stroke="#18707F" stroke-width="1.4"/>
    <text x="52" y="252" font-family="Arial, sans-serif" font-size="9" fill="#B4B8C0">SSC-WHS-JSA-001</text>
    <text x="52" y="270" font-family="Arial, sans-serif" font-size="13" font-weight="bold" fill="#16294D">Job Safety Analysis</text>
    <text x="52" y="288" font-family="Arial, sans-serif" font-size="10" fill="#7A7D85">10 fields · 8 required</text>
    <text x="52" y="300" font-family="Arial, sans-serif" font-size="10" font-weight="600" fill="#B4451E">Fill in →</text>
  </g>

  <!-- Template card 2 -->
  <g>
    <rect x="276" y="172" width="228" height="140" rx="12" fill="#FFFFFF" stroke="#E2E4E9" stroke-width="1"/>
    <rect x="296" y="192" width="40" height="40" rx="8" fill="#FFF8EC"/>
    <rect x="308" y="204" width="16" height="14" rx="2" fill="none" stroke="#C9A84C" stroke-width="1.6"/>
    <line x1="312" y1="209" x2="320" y2="209" stroke="#C9A84C" stroke-width="1.4"/>
    <line x1="312" y1="213" x2="320" y2="213" stroke="#C9A84C" stroke-width="1.4"/>
    <text x="296" y="252" font-family="Arial, sans-serif" font-size="9" fill="#B4B8C0">SSC-WHS-SWMS-001</text>
    <text x="296" y="270" font-family="Arial, sans-serif" font-size="13" font-weight="bold" fill="#16294D">Safe Work Method St.</text>
    <text x="296" y="288" font-family="Arial, sans-serif" font-size="10" fill="#7A7D85">14 fields · 12 required</text>
    <text x="296" y="300" font-family="Arial, sans-serif" font-size="10" font-weight="600" fill="#B4451E">Fill in →</text>
  </g>

  <!-- Template card 3 -->
  <g>
    <rect x="520" y="172" width="248" height="140" rx="12" fill="#FFFFFF" stroke="#E2E4E9" stroke-width="1"/>
    <rect x="540" y="192" width="40" height="40" rx="8" fill="#EAF4F5"/>
    <rect x="552" y="204" width="16" height="14" rx="2" fill="none" stroke="#18707F" stroke-width="1.6"/>
    <line x1="556" y1="209" x2="564" y2="209" stroke="#18707F" stroke-width="1.4"/>
    <line x1="556" y1="213" x2="564" y2="213" stroke="#18707F" stroke-width="1.4"/>
    <text x="540" y="252" font-family="Arial, sans-serif" font-size="9" fill="#B4B8C0">SSC-WHS-INC-002</text>
    <text x="540" y="270" font-family="Arial, sans-serif" font-size="13" font-weight="bold" fill="#16294D">Incident Report Form</text>
    <text x="540" y="288" font-family="Arial, sans-serif" font-size="10" fill="#7A7D85">9 fields · 7 required</text>
    <text x="540" y="300" font-family="Arial, sans-serif" font-size="10" font-weight="600" fill="#B4451E">Fill in →</text>
  </g>

  <!-- Team status strip -->
  <rect x="32" y="336" width="736" height="150" rx="12" fill="#FFFFFF" stroke="#E2E4E9" stroke-width="1"/>
  <text x="52" y="364" font-family="Arial, sans-serif" font-size="13" font-weight="bold" fill="#16294D">Team history</text>
  <text x="52" y="382" font-family="Arial, sans-serif" font-size="10" fill="#7A7D85">Every template your team has started or completed.</text>

  <line x1="52" y1="398" x2="748" y2="398" stroke="#EDEEF1" stroke-width="1"/>
  <text x="52" y="418" font-family="Arial, sans-serif" font-size="10" font-weight="600" fill="#B4B8C0">Template</text>
  <text x="420" y="418" font-family="Arial, sans-serif" font-size="10" font-weight="600" fill="#B4B8C0">Status</text>
  <text x="560" y="418" font-family="Arial, sans-serif" font-size="10" font-weight="600" fill="#B4B8C0">Last updated</text>

  <line x1="52" y1="430" x2="748" y2="430" stroke="#F5F6F8" stroke-width="1"/>
  <text x="52" y="450" font-family="Arial, sans-serif" font-size="11" fill="#3C4759">Job Safety Analysis</text>
  <rect x="420" y="440" width="66" height="18" rx="9" fill="#E5F3EB"/>
  <text x="453" y="452.5" text-anchor="middle" font-family="Arial, sans-serif" font-size="9" font-weight="600" fill="#2E7D5B">Complete</text>
  <text x="560" y="450" font-family="Arial, sans-serif" font-size="10" fill="#B4B8C0">6 Aug 2026</text>

  <line x1="52" y1="462" x2="748" y2="462" stroke="#F5F6F8" stroke-width="1"/>
  <text x="52" y="480" font-family="Arial, sans-serif" font-size="11" fill="#3C4759">Incident Report Form</text>
  <rect x="420" y="470" width="46" height="18" rx="9" fill="#FDF2E7"/>
  <text x="443" y="482.5" text-anchor="middle" font-family="Arial, sans-serif" font-size="9" font-weight="600" fill="#C9743F">Draft</text>
  <text x="560" y="480" font-family="Arial, sans-serif" font-size="10" fill="#B4B8C0">5 Aug 2026</text>
</svg>
